<svg width="360" height="146" viewBox="0 0 360 146" fill="none" xmlns="http://www.w3.org/2000/svg">
<g clip-path="url(#clip0)">
<path d="M34.6883 126.39L34.1212 125.729C38.919 121.617 44.8903 116.5 47.1253 109.736C49.3285 103.069 47.6711 95.0198 42.8 88.7297C38.6545 83.3764 32.2534 79.1609 24.2886 76.5388C22.7176 76.0215 21.0865 75.5622 19.509 75.1177C15.696 74.0438 11.7532 72.9331 8.26148 70.9033C3.45227 68.1075 -0.915955 62.6159 0.166498 56.6499C0.533969 54.7409 1.42933 52.9732 2.75091 51.5475C4.0725 50.1218 5.76737 49.0952 7.64306 48.5842L7.87491 49.4245C6.15648 49.8923 4.60359 50.8324 3.39245 52.1382C2.18131 53.4439 1.36042 55.063 1.02295 56.8117C0.0170839 62.3558 4.15348 67.5069 8.69957 70.1498C12.0958 72.1241 15.9846 73.2195 19.7453 74.2788C21.3317 74.7257 22.9722 75.1878 24.5613 75.711C32.6917 78.3876 39.2369 82.7048 43.4891 88.1959C48.5354 94.7122 50.2458 103.071 47.9529 110.01C45.6417 117.004 39.5684 122.208 34.6883 126.39Z" fill="#F1F1F1"/>
<path d="M14.0127 51.9078C18.1297 51.0183 21.117 48.6761 20.6849 46.6764C20.2529 44.6767 16.5651 43.7767 12.4481 44.6663C8.3311 45.5558 5.34383 47.8979 5.77588 49.8976C6.20793 51.8973 9.89568 52.7973 14.0127 51.9078Z" fill="#F1F1F1"/>
<path d="M25.1303 74.474C29.2473 73.5845 32.2345 71.2423 31.8025 69.2426C31.3704 67.2429 27.6827 66.3429 23.5657 67.2324C19.4486 68.1219 16.4614 70.4641 16.8934 72.4638C17.3255 74.4635 21.0132 75.3635 25.1303 74.474Z" fill="#F1F1F1"/>
<path d="M12.3275 81.2528C16.4445 80.3633 19.4317 78.0211 18.9997 76.0214C18.5677 74.0217 14.8799 73.1217 10.7629 74.0112C6.64586 74.9007 3.65859 77.2429 4.09064 79.2426C4.52269 81.2423 8.21044 82.1423 12.3275 81.2528Z" fill="#F1F1F1"/>
<path d="M119.508 77.6619H118.636V80.2767H119.508V77.6619Z" fill="#E5E5E5"/>
<path d="M119.508 135.989H118.636V130.418H119.508V135.989ZM119.508 124.847H118.636V119.275H119.508V124.847ZM119.508 113.704H118.636V108.133H119.508V113.704ZM119.508 102.562H118.636V96.9902H119.508V102.562ZM119.508 91.419H118.636V85.8477H119.508V91.419Z" fill="#E5E5E5"/>
<path d="M119.508 141.561H118.636V144.175H119.508V141.561Z" fill="#E5E5E5"/>
<path d="M214.949 77.6619H214.077V80.2767H214.949V77.6619Z" fill="#E5E5E5"/>
<path d="M214.949 135.989H214.077V130.418H214.949V135.989ZM214.949 124.847H214.077V119.275H214.949V124.847ZM214.949 113.704H214.077V108.133H214.949V113.704ZM214.949 102.562H214.077V96.9902H214.949V102.562ZM214.949 91.419H214.077V85.8477H214.949V91.419Z" fill="#E5E5E5"/>
<path d="M214.949 141.561H214.077V144.175H214.949V141.561Z" fill="#E5E5E5"/>
<path d="M263.092 26.509H262.22V29.1238H263.092V26.509Z" fill="#E5E5E5"/>
<path d="M263.092 136.206H262.22V130.852H263.092V136.206ZM263.092 125.498H262.22V120.144H263.092V125.498ZM263.092 114.79H262.22V109.436H263.092V114.79ZM263.092 104.082H262.22V98.7275H263.092V104.082ZM263.092 93.3734H262.22V88.0191H263.092V93.3734ZM263.092 82.665H262.22V77.3109H263.092V82.665ZM263.092 71.9567H262.22V66.6026H263.092V71.9567ZM263.092 61.2485H262.22V55.8944H263.092V61.2485ZM263.092 50.5401H262.22V45.186H263.092V50.5401ZM263.092 39.8319H262.22V34.4778H263.092V39.8319Z" fill="#E5E5E5"/>
<path d="M263.092 141.561H262.22V144.175H263.092V141.561Z" fill="#E5E5E5"/>
<path d="M310.754 5.59058H309.883V8.20539H310.754V5.59058Z" fill="#E5E5E5"/>
<path d="M310.754 136.226H309.883V130.892H310.754V136.226ZM310.754 125.558H309.883V120.224H310.754V125.558ZM310.754 114.89H309.883V109.555H310.754V114.89ZM310.754 104.221H309.883V98.8869H310.754V104.221ZM310.754 93.5528H309.883V88.2185H310.754V93.5528ZM310.754 82.8843H309.883V77.5501H310.754V82.8843ZM310.754 72.2159H309.883V66.8816H310.754V72.2159ZM310.754 61.5475H309.883V56.2132H310.754V61.5475ZM310.754 50.8791H309.883V45.5448H310.754V50.8791ZM310.754 40.2106H309.883V34.8764H310.754V40.2106ZM310.754 29.5422H309.883V24.208H310.754V29.5422ZM310.754 18.8738H309.883V13.5396H310.754V18.8738Z" fill="#E5E5E5"/>
<path d="M310.754 141.561H309.883V144.175H310.754V141.561Z" fill="#E5E5E5"/>
<path d="M167.446 42.6335H166.575V45.2484H167.446V42.6335Z" fill="#E5E5E5"/>
<path d="M167.446 136.492H166.575V131.423H167.446V136.492ZM167.446 126.354H166.575V121.285H167.446V126.354ZM167.446 116.215H166.575V111.146H167.446V116.215ZM167.446 106.077H166.575V101.008H167.446V106.077ZM167.446 95.9391H166.575V90.8702H167.446V95.9391ZM167.446 85.801H166.575V80.732H167.446V85.801ZM167.446 75.6629H166.575V70.5939H167.446V75.6629ZM167.446 65.5247H166.575V60.4558H167.446V65.5247ZM167.446 55.3866H166.575V50.3176H167.446V55.3866Z" fill="#E5E5E5"/>
<path d="M167.446 141.561H166.575V144.175H167.446V141.561Z" fill="#E5E5E5"/>
<path d="M359.097 145.39H70.5434C70.3039 145.39 70.0742 145.294 69.9049 145.125C69.7355 144.956 69.6404 144.726 69.6404 144.486V6.18279C69.6409 5.94363 69.7363 5.71445 69.9056 5.54552C70.0749 5.3766 70.3043 5.28174 70.5434 5.28174C70.7826 5.28174 71.012 5.3766 71.1813 5.54552C71.3506 5.71445 71.4459 5.94363 71.4465 6.18279V143.583H359.097C359.216 143.583 359.333 143.606 359.443 143.652C359.553 143.697 359.653 143.763 359.737 143.847C359.821 143.931 359.887 144.031 359.933 144.14C359.978 144.25 360.002 144.368 360.002 144.486C360.002 144.605 359.978 144.723 359.933 144.833C359.887 144.942 359.821 145.042 359.737 145.126C359.653 145.21 359.553 145.276 359.443 145.321C359.333 145.367 359.216 145.39 359.097 145.39Z" fill="#3F3D56"/>
<path d="M214.909 78.8755L166.933 42.9415L119.614 78.3844L118.531 76.9388L166.933 40.6845L214.68 76.4477L262.128 24.5245L262.318 24.4474L310.179 5.16357L310.854 6.83923L263.184 26.0459L214.909 78.8755Z" fill="#3F3D56"/>
<path d="M119.072 83.0799C122.065 83.0799 124.49 80.6541 124.49 77.6617C124.49 74.6692 122.065 72.2434 119.072 72.2434C116.08 72.2434 113.654 74.6692 113.654 77.6617C113.654 80.6541 116.08 83.0799 119.072 83.0799Z" fill="#4F47EB"/>
<path d="M166.933 47.8611C169.926 47.8611 172.352 45.4353 172.352 42.4429C172.352 39.4505 169.926 37.0247 166.933 37.0247C163.941 37.0247 161.515 39.4505 161.515 42.4429C161.515 45.4353 163.941 47.8611 166.933 47.8611Z" fill="#4F47EB"/>
<path d="M214.795 83.0799C217.787 83.0799 220.213 80.6541 220.213 77.6617C220.213 74.6692 217.787 72.2434 214.795 72.2434C211.802 72.2434 209.376 74.6692 209.376 77.6617C209.376 80.6541 211.802 83.0799 214.795 83.0799Z" fill="#E5E5E5"/>
<path d="M213.487 102.255C216.48 102.255 218.905 99.8294 218.905 96.837C218.905 93.8445 216.48 91.4187 213.487 91.4187C210.495 91.4187 208.069 93.8445 208.069 96.837C208.069 99.8294 210.495 102.255 213.487 102.255Z" fill="#4F47EB"/>
<path d="M262.656 30.7034C265.648 30.7034 268.074 28.2776 268.074 25.2852C268.074 22.2928 265.648 19.8669 262.656 19.8669C259.663 19.8669 257.238 22.2928 257.238 25.2852C257.238 28.2776 259.663 30.7034 262.656 30.7034Z" fill="#4F47EB"/>
<path d="M310.517 10.8365C313.509 10.8365 315.935 8.41066 315.935 5.41825C315.935 2.42583 313.509 0 310.517 0C307.525 0 305.099 2.42583 305.099 5.41825C305.099 8.41066 307.525 10.8365 310.517 10.8365Z" fill="#4F47EB"/>
<path d="M69.041 106.03C70.8914 101.189 71.1594 96.7933 69.6396 96.2124C68.1198 95.6314 65.3876 99.0852 63.5372 103.926C61.6868 108.768 61.4188 113.163 62.9386 113.744C64.4584 114.325 67.1906 110.871 69.041 106.03Z" fill="#2F2E41"/>
<path d="M48.941 137.92C59.3067 137.92 67.7098 129.517 67.7098 119.151C67.7098 108.786 59.3067 100.383 48.941 100.383C38.5753 100.383 30.1722 108.786 30.1722 119.151C30.1722 129.517 38.5753 137.92 48.941 137.92Z" fill="#2F2E41"/>
<path d="M46.0901 133.882H40.3882V144.098H46.0901V133.882Z" fill="#2F2E41"/>
<path d="M57.4939 133.882H51.792V144.098H57.4939V133.882Z" fill="#2F2E41"/>
<path d="M45.1398 145.998C47.764 145.998 49.8914 145.2 49.8914 144.216C49.8914 143.232 47.764 142.434 45.1398 142.434C42.5155 142.434 40.3882 143.232 40.3882 144.216C40.3882 145.2 42.5155 145.998 45.1398 145.998Z" fill="#2F2E41"/>
<path d="M56.5436 145.76C59.1678 145.76 61.2952 144.962 61.2952 143.978C61.2952 142.994 59.1678 142.197 56.5436 142.197C53.9194 142.197 51.792 142.994 51.792 143.978C51.792 144.962 53.9194 145.76 56.5436 145.76Z" fill="#2F2E41"/>
<path d="M49.4162 120.814C52.959 120.814 55.8309 117.942 55.8309 114.4C55.8309 110.857 52.959 107.985 49.4162 107.985C45.8735 107.985 43.0016 110.857 43.0016 114.4C43.0016 117.942 45.8735 120.814 49.4162 120.814Z" fill="white"/>
<path d="M49.4162 116.538C50.5971 116.538 51.5544 115.581 51.5544 114.4C51.5544 113.219 50.5971 112.261 49.4162 112.261C48.2353 112.261 47.278 113.219 47.278 114.4C47.278 115.581 48.2353 116.538 49.4162 116.538Z" fill="#3F3D56"/>
<path d="M30.7347 101.697C29.2192 94.9098 34.0636 88.0518 41.555 86.379C49.0465 84.7062 56.348 88.8522 57.8635 95.6393C59.379 102.426 54.4142 104.93 46.9227 106.602C39.4313 108.275 32.2502 108.484 30.7347 101.697Z" fill="#E6E6E6"/>
<path d="M36.2802 114.464C36.9774 112.994 33.7464 110.002 29.0635 107.781C24.3807 105.56 20.0192 104.951 19.322 106.421C18.6247 107.891 21.8557 110.883 26.5386 113.104C31.2215 115.325 35.5829 115.934 36.2802 114.464Z" fill="#2F2E41"/>
<path d="M39.7219 125.923C39.7219 127.76 44.4517 131.387 49.7002 131.387C54.9487 131.387 59.8697 126.215 59.8697 124.378C59.8697 122.541 54.9487 124.735 49.7002 124.735C44.4518 124.735 39.7219 124.086 39.7219 125.923Z" fill="white"/>
<path d="M190.633 134.933C200.999 134.933 209.402 126.53 209.402 116.165C209.402 105.799 200.999 97.3958 190.633 97.3958C180.267 97.3958 171.864 105.799 171.864 116.165C171.864 126.53 180.267 134.933 190.633 134.933Z" fill="#2F2E41"/>
<path d="M187.782 130.895H182.08V141.11H187.782V130.895Z" fill="#2F2E41"/>
<path d="M199.186 130.895H193.484V141.11H199.186V130.895Z" fill="#2F2E41"/>
<path d="M190.725 144.495C191.131 143.598 189.521 141.995 187.13 140.913C184.739 139.832 182.472 139.682 182.066 140.579C181.661 141.475 183.271 143.079 185.662 144.16C188.053 145.242 190.32 145.391 190.725 144.495Z" fill="#2F2E41"/>
<path d="M201.639 143.939C202.068 143.053 200.503 141.407 198.142 140.26C195.782 139.114 193.519 138.903 193.09 139.788C192.66 140.673 194.225 142.32 196.586 143.466C198.947 144.612 201.209 144.824 201.639 143.939Z" fill="#2F2E41"/>
<path d="M172.427 98.7101C170.911 91.923 175.756 85.065 183.247 83.3922C190.738 81.7194 198.04 85.8654 199.555 92.6525C201.071 99.4396 196.106 101.943 188.615 103.616C181.123 105.288 173.942 105.497 172.427 98.7101Z" fill="#4F47EB"/>
<path d="M210.858 107.963C214.923 103.895 217.183 99.563 215.906 98.287C214.629 97.011 210.298 99.2742 206.234 103.342C202.169 107.41 199.909 111.742 201.186 113.018C202.463 114.294 206.794 112.031 210.858 107.963Z" fill="#2F2E41"/>
<path d="M175.227 123.923C176.702 118.365 176.483 113.484 174.738 113.021C172.993 112.558 170.383 116.688 168.908 122.246C167.433 127.804 167.651 132.685 169.396 133.149C171.141 133.612 173.751 129.481 175.227 123.923Z" fill="#2F2E41"/>
</g>
<defs>
<clipPath id="clip0">
<rect width="360" height="145.998" fill="white"/>
</clipPath>
</defs>
</svg>
