<svg width="544" height="544" viewBox="0 0 544 544" fill="none" xmlns="http://www.w3.org/2000/svg">
<g filter="url(#filter0_d)">
<path d="M463 12H81C45.1015 12 16 41.1015 16 77V459C16 494.899 45.1015 524 81 524H463C498.899 524 528 494.899 528 459V77C528 41.1015 498.899 12 463 12Z" fill="#2B3EED"/>
</g>
<g filter="url(#filter1_d)">
<path d="M287.562 352.301C298.986 350.635 307.554 346.768 313.266 340.699C318.978 334.511 321.834 326.3 321.834 316.066C321.834 312.02 321.12 308.509 319.692 305.534C318.264 302.44 316.3 299.703 313.801 297.323C311.302 294.943 308.327 292.861 304.876 291.076C301.425 289.172 297.677 287.506 293.631 286.078L287.562 352.301ZM273.817 170.231C267.748 171.064 262.572 172.433 258.288 174.337C254.004 176.122 250.493 178.323 247.756 180.941C245.138 183.559 243.175 186.475 241.866 189.688C240.676 192.782 240.081 196.114 240.081 199.684C240.081 203.73 240.735 207.359 242.044 210.572C243.472 213.666 245.436 216.463 247.935 218.962C250.434 221.461 253.409 223.722 256.86 225.745C260.311 227.649 264.119 229.374 268.284 230.921L273.817 170.231ZM297.736 240.56C303.448 242.226 309.16 244.071 314.872 246.094C320.584 247.998 326.058 250.199 331.294 252.698C336.53 255.197 341.409 258.113 345.931 261.445C350.453 264.777 354.38 268.704 357.712 273.226C361.163 277.629 363.841 282.746 365.745 288.577C367.649 294.408 368.601 301.072 368.601 308.569C368.601 319.636 366.697 330.108 362.889 339.985C359.2 349.743 353.726 358.43 346.467 366.046C339.208 373.543 330.342 379.671 319.87 384.431C309.398 389.191 297.379 392.047 283.813 392.999L281.671 417.275C281.433 420.369 280.124 423.166 277.744 425.665C275.364 428.164 272.27 429.413 268.462 429.413H250.434L253.825 391.75C247.042 390.798 240.319 389.37 233.655 387.466C227.11 385.443 220.803 383.063 214.734 380.326C208.665 377.47 202.953 374.316 197.598 370.865C192.243 367.295 187.423 363.428 183.139 359.263L198.312 336.95C199.621 335.046 201.406 333.499 203.667 332.309C205.928 331 208.248 330.346 210.628 330.346C213.365 330.346 216.221 331.179 219.196 332.845C222.171 334.511 225.444 336.534 229.014 338.914C232.703 341.175 236.808 343.495 241.33 345.875C245.971 348.255 251.326 350.1 257.395 351.409L264.178 277.331C258.466 275.784 252.754 274.059 247.042 272.155C241.449 270.132 236.035 267.811 230.799 265.193C225.563 262.575 220.684 259.541 216.162 256.09C211.759 252.52 207.891 248.295 204.559 243.416C201.227 238.537 198.609 232.944 196.705 226.637C194.801 220.211 193.849 212.833 193.849 204.503C193.849 195.221 195.694 186.237 199.383 177.55C203.072 168.744 208.427 160.89 215.448 153.988C222.588 147.086 231.334 141.433 241.687 137.03C252.04 132.508 263.94 129.89 277.387 129.176L279.351 107.935C279.589 104.841 280.898 102.104 283.278 99.7238C285.777 97.2248 288.871 95.9753 292.56 95.9753H310.767L307.554 130.961C320.406 133.222 331.413 136.911 340.576 142.028C349.739 147.145 357.593 152.917 364.138 159.343L352 177.193C350.334 179.93 348.549 181.953 346.645 183.262C344.741 184.452 342.48 185.047 339.862 185.047C338.077 185.047 335.935 184.571 333.436 183.619C331.056 182.548 328.379 181.298 325.404 179.87C322.429 178.323 319.097 176.776 315.408 175.229C311.838 173.682 308.03 172.373 303.984 171.302L297.736 240.56Z" fill="white"/>
</g>
<defs>
<filter id="filter0_d" x="0" y="0" width="544" height="544" filterUnits="userSpaceOnUse" color-interpolation-filters="sRGB">
<feFlood flood-opacity="0" result="BackgroundImageFix"/>
<feColorMatrix in="SourceAlpha" type="matrix" values="0 0 0 0 0 0 0 0 0 0 0 0 0 0 0 0 0 0 127 0" result="hardAlpha"/>
<feOffset dy="4"/>
<feGaussianBlur stdDeviation="8"/>
<feColorMatrix type="matrix" values="0 0 0 0 0.0823529 0 0 0 0 0.14902 0 0 0 0 0.733333 0 0 0 1 0"/>
<feBlend mode="normal" in2="BackgroundImageFix" result="effect1_dropShadow"/>
<feBlend mode="normal" in="SourceGraphic" in2="effect1_dropShadow" result="shape"/>
</filter>
<filter id="filter1_d" x="163.139" y="75.9753" width="225.462" height="373.438" filterUnits="userSpaceOnUse" color-interpolation-filters="sRGB">
<feFlood flood-opacity="0" result="BackgroundImageFix"/>
<feColorMatrix in="SourceAlpha" type="matrix" values="0 0 0 0 0 0 0 0 0 0 0 0 0 0 0 0 0 0 127 0" result="hardAlpha"/>
<feOffset/>
<feGaussianBlur stdDeviation="10"/>
<feComposite in2="hardAlpha" operator="out"/>
<feColorMatrix type="matrix" values="0 0 0 0 1 0 0 0 0 1 0 0 0 0 1 0 0 0 1 0"/>
<feBlend mode="normal" in2="BackgroundImageFix" result="effect1_dropShadow"/>
<feBlend mode="normal" in="SourceGraphic" in2="effect1_dropShadow" result="shape"/>
</filter>
</defs>
</svg>
