<svg width="192" height="192" viewBox="0 0 192 192" fill="none" xmlns="http://www.w3.org/2000/svg">
<rect width="192" height="192" rx="57.5" fill="#1B1B22"/>
<path d="M132.25 115.871C132.25 120.272 131.002 124.409 128.505 128.282C126.108 132.155 122.514 135.412 117.719 138.052C113.026 140.693 107.434 142.277 100.943 142.805V153.5H91.2073V142.805C81.8186 142.013 74.2309 139.417 68.4385 135.015C62.6462 130.614 59.75 124.805 59.75 117.587H78.0257C78.3253 121.02 79.573 123.881 81.769 126.169C83.9669 128.37 87.113 129.778 91.2073 130.394V101.347C84.5163 99.851 79.0731 98.3546 74.8796 96.8583C70.6841 95.2738 67.0897 92.8091 64.0943 89.4644C61.1981 86.1196 59.75 81.5424 59.75 75.733C59.75 68.4272 62.6462 62.3978 68.4385 57.6446C74.2309 52.8035 81.8186 49.9868 91.2073 49.1946V38.5H100.943V49.1946C109.731 49.8988 116.771 52.3634 122.064 56.5884C127.457 60.7255 130.502 66.4467 131.201 73.7527H112.927C112.627 71.0239 111.429 68.6034 109.332 66.4908C107.234 64.2903 104.439 62.7939 100.943 62.0018V90.5206C107.634 91.929 113.076 93.4253 117.271 95.0098C121.465 96.5062 125.01 98.9268 127.906 102.272C130.802 105.528 132.25 110.061 132.25 115.871ZM77.1252 74.9408C77.1252 78.5497 78.3253 81.3664 80.7216 83.391C83.2171 85.4154 86.7123 87.0438 91.2073 88.2762V61.6056C86.9127 62.0457 83.4671 63.4102 80.8704 65.6987C78.3749 67.9872 77.1252 71.068 77.1252 74.9408ZM100.943 130.394C105.337 129.778 108.783 128.238 111.278 125.773C113.776 123.221 115.024 120.184 115.024 116.663C115.024 113.142 113.776 110.414 111.278 108.477C108.882 106.453 105.436 104.824 100.943 103.592V130.394Z" fill="white"/>
</svg>
