<svg width="384" height="384" viewBox="0 0 384 384" fill="none" xmlns="http://www.w3.org/2000/svg">
<rect width="384" height="384" rx="90" fill="#1B1B22"/>
<path d="M255.043 226.558C255.043 234.212 252.873 241.407 248.53 248.142C244.363 254.878 238.111 260.542 229.773 265.134C221.61 269.727 211.885 272.482 200.597 273.401V292H183.665V273.401C167.337 272.023 154.141 267.507 144.067 259.853C133.993 252.199 128.957 242.096 128.957 229.543H160.74C161.261 235.513 163.431 240.488 167.25 244.468C171.073 248.295 176.544 250.745 183.665 251.816V201.3C172.028 198.697 162.562 196.095 155.269 193.493C147.972 190.737 141.721 186.451 136.512 180.634C131.475 174.817 128.957 166.856 128.957 156.753C128.957 144.047 133.993 133.561 144.067 125.295C154.141 116.876 167.337 111.977 183.665 110.599V92H200.597V110.599C215.88 111.824 228.124 116.11 237.328 123.458C246.709 130.653 252.004 140.603 253.219 153.309H221.438C220.917 148.563 218.833 144.354 215.187 140.68C211.537 136.853 206.676 134.25 200.597 132.873V182.471C212.234 184.92 221.697 187.522 228.993 190.278C236.286 192.88 242.451 197.09 247.488 202.907C252.525 208.571 255.043 216.455 255.043 226.558ZM159.174 155.375C159.174 161.652 161.261 166.55 165.429 170.071C169.769 173.592 175.848 176.424 183.665 178.567V132.184C176.196 132.949 170.204 135.322 165.688 139.302C161.348 143.282 159.174 148.64 159.174 155.375ZM200.597 251.816C208.239 250.745 214.231 248.066 218.571 243.78C222.915 239.34 225.085 234.059 225.085 227.936C225.085 221.812 222.915 217.067 218.571 213.699C214.404 210.178 208.411 207.346 200.597 205.203V251.816Z" fill="white"/>
</svg>
