<svg width="512" height="512" viewBox="0 0 512 512" fill="none" xmlns="http://www.w3.org/2000/svg">
<rect width="512" height="512" rx="90" fill="#1B1B22"/>
<path d="M319.043 290.558C319.043 298.212 316.873 305.407 312.53 312.142C308.363 318.878 302.111 324.542 293.773 329.134C285.61 333.727 275.885 336.482 264.597 337.401V356H247.665V337.401C231.337 336.023 218.141 331.507 208.067 323.853C197.993 316.199 192.957 306.096 192.957 293.543H224.74C225.261 299.513 227.431 304.488 231.25 308.468C235.073 312.295 240.544 314.745 247.665 315.816V265.3C236.028 262.697 226.562 260.095 219.269 257.493C211.972 254.737 205.721 250.451 200.512 244.634C195.475 238.817 192.957 230.856 192.957 220.753C192.957 208.047 197.993 197.561 208.067 189.295C218.141 180.876 231.337 175.977 247.665 174.599V156H264.597V174.599C279.88 175.824 292.124 180.11 301.328 187.458C310.709 194.653 316.004 204.603 317.219 217.309H285.438C284.917 212.563 282.833 208.354 279.187 204.68C275.537 200.853 270.676 198.25 264.597 196.873V246.471C276.234 248.92 285.697 251.522 292.993 254.278C300.286 256.88 306.451 261.09 311.488 266.907C316.525 272.571 319.043 280.455 319.043 290.558ZM223.174 219.375C223.174 225.652 225.261 230.55 229.429 234.071C233.769 237.592 239.848 240.424 247.665 242.567V196.184C240.196 196.949 234.204 199.322 229.688 203.302C225.348 207.282 223.174 212.64 223.174 219.375ZM264.597 315.816C272.239 314.745 278.231 312.066 282.571 307.78C286.915 303.34 289.085 298.059 289.085 291.936C289.085 285.812 286.915 281.067 282.571 277.699C278.404 274.178 272.411 271.346 264.597 269.203V315.816Z" fill="white"/>
</svg>
