<svg width="33" height="32" viewBox="0 0 33 32" fill="none" xmlns="http://www.w3.org/2000/svg">
<path d="M25.9221 2.21602C26.4979 1.77261 27.2153 1.55389 27.9405 1.6007C28.6657 1.64751 29.3491 1.95666 29.863 2.47042C30.377 2.98418 30.6864 3.66743 30.7335 4.3926C30.7806 5.11778 30.5621 5.83531 30.1189 6.41122L23.6709 14.8432C21.8559 17.2165 19.5416 19.1621 16.8917 20.5424C16.5641 19.3193 15.9202 18.2039 15.0248 17.3086C14.1294 16.4132 13.0141 15.7693 11.7909 15.4416C13.1715 12.7924 15.1171 10.4787 17.4901 8.66402L25.9221 2.21602ZM9.93335 17.6C8.66031 17.6 7.43941 18.1057 6.53924 19.0059C5.63906 19.9061 5.13335 21.127 5.13335 22.4C5.13362 22.536 5.09924 22.6698 5.03345 22.7887C4.96766 22.9077 4.87264 23.008 4.75735 23.08C4.64206 23.1521 4.51031 23.1936 4.37453 23.2006C4.23876 23.2076 4.10344 23.1798 3.98135 23.12C3.76629 23.0144 3.52453 22.9755 3.28719 23.0084C3.04986 23.0414 2.82782 23.1446 2.64968 23.3049C2.47153 23.4651 2.34544 23.675 2.28764 23.9076C2.22984 24.1401 2.24297 24.3846 2.32535 24.6096C2.84484 26.0187 3.84319 27.2003 5.14578 27.9477C6.44837 28.6951 7.97228 28.9608 9.45094 28.6982C10.9296 28.4357 12.2689 27.6616 13.2345 26.5114C14.2002 25.3613 14.7307 23.9082 14.7333 22.4064V22.4C14.7318 21.5082 14.4826 20.6344 14.0137 19.8759C13.5447 19.1174 12.8744 18.504 12.0773 18.104C11.4116 17.7716 10.6775 17.599 9.93335 17.6Z" fill="#E4E4E7"/>
</svg>
