<svg width="1024" height="1024" viewBox="0 0 1024 1024" fill="none" xmlns="http://www.w3.org/2000/svg">
<rect width="1024" height="1024" rx="130" fill="#2B3EED"/>
<path d="M543.123 680.602C565.971 677.27 583.107 669.535 594.531 657.397C605.955 645.021 611.667 628.599 611.667 608.131C611.667 600.039 610.239 593.018 607.383 587.068C604.527 580.88 600.6 575.406 595.602 570.646C590.604 565.886 584.654 561.721 577.752 558.151C570.85 554.343 563.353 551.011 555.261 548.155L543.123 680.602ZM515.634 316.462C503.496 318.128 493.143 320.865 484.575 324.673C476.007 328.243 468.986 332.646 463.512 337.882C458.276 343.118 454.349 348.949 451.731 355.375C449.351 361.563 448.161 368.227 448.161 375.367C448.161 383.459 449.47 390.718 452.088 397.144C454.944 403.332 458.871 408.925 463.869 413.923C468.867 418.921 474.817 423.443 481.719 427.489C488.621 431.297 496.237 434.748 504.567 437.842L515.634 316.462ZM563.472 457.12C574.896 460.452 586.32 464.141 597.744 468.187C609.168 471.995 620.116 476.398 630.588 481.396C641.06 486.394 650.818 492.225 659.862 498.889C668.906 505.553 676.76 513.407 683.424 522.451C690.326 531.257 695.681 541.491 699.489 553.153C703.297 564.815 705.201 578.143 705.201 593.137C705.201 615.271 701.393 636.215 693.777 655.969C686.399 675.485 675.451 692.859 660.933 708.091C646.415 723.085 628.684 735.342 607.74 744.862C586.796 754.382 562.758 760.094 535.626 761.998L531.342 810.55C530.866 816.738 528.248 822.331 523.488 827.329C518.728 832.327 512.54 834.826 504.924 834.826H468.867L475.65 759.499C462.084 757.595 448.637 754.739 435.309 750.931C422.219 746.885 409.605 742.125 397.467 736.651C385.329 730.939 373.905 724.632 363.195 717.73C352.485 710.59 342.846 702.855 334.278 694.525L364.623 649.9C367.241 646.092 370.811 642.998 375.333 640.618C379.855 638 384.496 636.691 389.256 636.691C394.73 636.691 400.442 638.357 406.392 641.689C412.342 645.021 418.887 649.067 426.027 653.827C433.405 658.349 441.616 662.99 450.66 667.75C459.942 672.51 470.652 676.199 482.79 678.817L496.356 530.662C484.932 527.568 473.508 524.117 462.084 520.309C450.898 516.263 440.069 511.622 429.597 506.386C419.125 501.15 409.367 495.081 400.323 488.179C391.517 481.039 383.782 472.59 377.118 462.832C370.454 453.074 365.218 441.888 361.41 429.274C357.602 416.422 355.698 401.666 355.698 385.006C355.698 366.442 359.387 348.473 366.765 331.099C374.143 313.487 384.853 297.779 398.895 283.975C413.175 270.171 430.668 258.866 451.374 250.06C472.08 241.016 495.88 235.78 522.774 234.352L526.701 191.869C527.177 185.681 529.795 180.207 534.555 175.447C539.553 170.449 545.741 167.95 553.119 167.95H589.533L583.107 237.922C608.811 242.444 630.826 249.822 649.152 260.056C667.478 270.29 683.186 281.833 696.276 294.685L672 330.385C668.668 335.859 665.098 339.905 661.29 342.523C657.482 344.903 652.96 346.093 647.724 346.093C644.154 346.093 639.87 345.141 634.872 343.237C630.112 341.095 624.757 338.596 618.807 335.74C612.857 332.646 606.193 329.552 598.815 326.458C591.675 323.364 584.059 320.746 575.967 318.604L563.472 457.12Z" fill="white"/>
</svg>
