<svg
  width="32"
  height="32"
  viewBox="0 0 32 32"
  fill="none"
  xmlns="http://www.w3.org/2000/svg"
>
  <path
    fill-rule="evenodd"
    clip-rule="evenodd"
    d="M7.36955 20.752C7.56378 21.0035 7.65028 21.3219 7.61009 21.6371C7.56989 21.9524 7.40628 22.2388 7.15515 22.4336C6.5714 22.8829 6.1234 23.4849 5.86076 24.1731C5.59813 24.8614 5.53112 25.6088 5.66715 26.3328C6.3911 26.4688 7.13858 26.4018 7.82679 26.1392C8.515 25.8765 9.11708 25.4285 9.56635 24.8448C9.66168 24.7171 9.78148 24.6097 9.91876 24.5288C10.056 24.4479 10.2081 24.3952 10.366 24.3737C10.5238 24.3522 10.6844 24.3623 10.8383 24.4035C10.9923 24.4448 11.1364 24.5162 11.2624 24.6137C11.3884 24.7113 11.4938 24.8329 11.5722 24.9716C11.6507 25.1103 11.7008 25.2632 11.7196 25.4214C11.7383 25.5796 11.7254 25.74 11.6815 25.8932C11.6376 26.0464 11.5637 26.1893 11.464 26.3136C10.644 27.3771 9.50995 28.1553 8.22271 28.5379C6.93546 28.9204 5.56043 28.8879 4.29275 28.4448C4.12222 28.3853 3.96733 28.288 3.83961 28.1603C3.7119 28.0326 3.61466 27.8777 3.55515 27.7072C3.11182 26.4395 3.07912 25.0644 3.46169 23.7771C3.84426 22.4898 4.62266 21.3558 5.68635 20.536C5.93801 20.3413 6.2567 20.2545 6.57235 20.2947C6.88799 20.3349 7.17475 20.4988 7.36955 20.7504V20.752Z"
    fill="#E4E4E7"
  />
  <path
    fill-rule="evenodd"
    clip-rule="evenodd"
    d="M9.20318 19.2C10.2513 20.5408 11.4592 21.7487 12.8 22.7968V29.2C12.8 29.8624 13.3376 30.4 14 30.4C15.2441 30.4003 16.4711 30.1104 17.5835 29.5534C18.6959 28.9964 19.6631 28.1876 20.4082 27.1914C21.1533 26.1951 21.6558 25.0388 21.8757 23.8143C22.0957 22.5898 22.027 21.3309 21.6752 20.1376C24.4329 18.174 26.6689 15.5662 28.1887 12.5411C29.7084 9.51604 30.4659 6.16541 30.3952 2.78079C30.389 2.47082 30.2632 2.17525 30.0439 1.95603C29.8247 1.7368 29.5291 1.61093 29.2192 1.60479C25.8343 1.53378 22.4833 2.29113 19.458 3.81092C16.4326 5.33071 13.8246 7.56687 11.8608 10.3248C10.6676 9.97326 9.40885 9.90482 8.18457 10.1249C6.96029 10.345 5.8042 10.8475 4.80813 11.5926C3.81206 12.3377 3.00346 13.3047 2.44655 14.417C1.88964 15.5293 1.59977 16.7561 1.59998 18C1.60158 18.6624 2.13918 19.2 2.80158 19.2H9.20318ZM20.8 14.4C21.6487 14.4 22.4626 14.0628 23.0627 13.4627C23.6628 12.8626 24 12.0487 24 11.2C24 10.3513 23.6628 9.53736 23.0627 8.93725C22.4626 8.33713 21.6487 7.99999 20.8 7.99999C19.9513 7.99999 19.1374 8.33713 18.5372 8.93725C17.9371 9.53736 17.6 10.3513 17.6 11.2C17.6 12.0487 17.9371 12.8626 18.5372 13.4627C19.1374 14.0628 19.9513 14.4 20.8 14.4Z"
    fill="#E4E4E7"
  />
</svg>