<svg width="33" height="32" viewBox="0 0 33 32" fill="none" xmlns="http://www.w3.org/2000/svg">
<path fill-rule="evenodd" clip-rule="evenodd" d="M10.2667 5.99998C10.2667 4.83302 10.7303 3.71387 11.5554 2.88871C12.3806 2.06355 13.4997 1.59998 14.6667 1.59998H18.6667C19.8337 1.59998 20.9528 2.06355 21.778 2.88871C22.6031 3.71387 23.0667 4.83302 23.0667 5.99998V6.70878C23.9819 6.79677 24.8907 6.90398 25.7963 7.02878C27.9515 7.33118 29.4667 9.19998 29.4667 11.312V16.8624C29.4667 18.664 28.3563 20.368 26.5387 20.9264C23.4155 21.8848 20.1003 22.4 16.6667 22.4C13.2331 22.4 9.9163 21.8848 6.7947 20.9264C4.9771 20.368 3.8667 18.664 3.8667 16.8624V11.312C3.8667 9.19838 5.3819 7.32958 7.5371 7.03038C8.44462 6.90415 9.35469 6.79692 10.2667 6.70878V5.99998ZM20.6667 5.99998V6.51998C18.0024 6.35966 15.331 6.35966 12.6667 6.51998V5.99998C12.6667 4.89598 13.5627 3.99998 14.6667 3.99998H18.6667C19.7707 3.99998 20.6667 4.89598 20.6667 5.99998ZM16.6667 16C16.2424 16 15.8354 16.1685 15.5353 16.4686C15.2353 16.7687 15.0667 17.1756 15.0667 17.6V17.616C15.0667 18.0403 15.2353 18.4473 15.5353 18.7473C15.8354 19.0474 16.2424 19.216 16.6667 19.216H16.6827C17.107 19.216 17.514 19.0474 17.8141 18.7473C18.1141 18.4473 18.2827 18.0403 18.2827 17.616V17.6C18.2827 17.1756 18.1141 16.7687 17.8141 16.4686C17.514 16.1685 17.107 16 16.6827 16H16.6667Z" fill="#E4E4E7"/>
<path d="M5.4668 24.0881V22.9937C5.6684 23.0785 5.8748 23.1537 6.0908 23.2209C9.438 24.2481 12.9916 24.8001 16.6668 24.8001C20.342 24.8001 23.8956 24.2481 27.2428 23.2209C27.4588 23.1553 27.6652 23.0785 27.8668 22.9937V24.0881C27.8668 26.2433 26.2908 28.1361 24.086 28.3857C19.1554 28.9407 14.1782 28.9407 9.2476 28.3857C7.0428 28.1361 5.4668 26.2433 5.4668 24.0881Z" fill="#E4E4E7"/>
</svg>
